<?xml version="1.0" standalone="no"?>
<!DOCTYPE svg PUBLIC "-//W3C//DTD SVG 20010904//EN"
 "http://www.w3.org/TR/2001/REC-SVG-20010904/DTD/svg10.dtd">
<svg version="1.0" xmlns="http://www.w3.org/2000/svg"
 width="512.000000pt" height="512.000000pt" viewBox="0 0 512.000000 512.000000"
 preserveAspectRatio="xMidYMid meet">
<metadata>
Created by potrace 1.11, written by Peter Selinger 2001-2013
</metadata>
<g transform="translate(0.000000,512.000000) scale(0.100000,-0.100000)"
fill="#000000" stroke="none">
<path d="M4315 5049 c-142 -19 -282 -85 -396 -186 -17 -15 -56 -61 -87 -102
-69 -91 -122 -145 -191 -195 -57 -40 -363 -192 -468 -232 -114 -42 -326 -93
-458 -109 -27 -3 -63 -8 -80 -10 -108 -15 -166 -17 -420 -13 -76 1 -274 -10
-284 -16 -3 -2 -28 -7 -55 -10 -27 -4 -77 -14 -110 -22 -34 -8 -68 -16 -76
-18 -239 -57 -547 -211 -765 -384 -66 -52 -260 -241 -315 -307 -95 -114 -214
-300 -275 -430 -70 -149 -88 -202 -151 -432 -2 -9 -26 -13 -73 -13 -76 0 -70
6 -86 -78 -28 -147 -27 -737 1 -887 14 -76 5 -70 106 -70 l92 0 16 -50 c18
-55 22 -67 52 -140 117 -287 327 -576 567 -779 85 -71 196 -156 205 -156 2 0
28 -16 58 -36 151 -100 458 -223 652 -260 12 -2 44 -8 71 -13 104 -21 135 -23
330 -26 233 -3 360 11 560 65 136 36 225 70 370 140 342 166 621 412 830 730
74 114 172 311 215 435 l31 90 97 0 c53 -1 102 1 109 3 10 3 25 67 38 172 29
230 16 678 -23 825 -8 29 -11 30 -66 30 l-58 0 7 55 c8 65 41 238 56 295 6 22
12 45 13 50 10 48 46 149 88 240 155 342 222 439 384 561 108 81 189 185 242
310 31 73 43 136 48 241 6 123 -16 223 -73 343 -39 82 -58 107 -137 185 -69
69 -109 99 -166 127 -146 71 -284 96 -425 77z m210 -449 c163 -79 217 -284
112 -422 -87 -114 -229 -151 -353 -92 -172 82 -213 312 -80 452 81 87 216 113
321 62z m-785 -507 c51 -159 218 -335 380 -402 30 -13 59 -26 63 -30 4 -4 -28
-77 -71 -162 -44 -85 -92 -187 -107 -227 -16 -39 -29 -71 -31 -70 -1 2 -29 44
-62 93 -96 144 -226 289 -373 416 -65 56 -230 176 -255 186 -25 9 -15 19 39
37 55 19 365 171 382 187 16 16 23 10 35 -28z m-1320 -438 c19 -3 42 -7 50
-10 8 -2 33 -7 55 -11 75 -11 274 -83 374 -134 247 -127 474 -338 616 -575 66
-109 164 -339 150 -353 -2 -2 -249 -4 -547 -4 -299 0 -958 1 -1465 1 l-922 1
30 88 c189 533 690 934 1249 998 30 3 57 8 59 10 5 5 309 -4 351 -11z m1188
-2124 c1 0 -16 -37 -38 -81 -284 -564 -885 -898 -1510 -839 -251 24 -504 113
-706 249 -75 51 -88 61 -162 125 -163 142 -301 328 -382 510 l-17 40 1406 -1
c773 -1 1407 -2 1409 -3z"/>
</g>
</svg>
