<svg width="45" height="66" viewBox="0 0 45 66" fill="none" xmlns="http://www.w3.org/2000/svg">
<path d="M21.9859 42.7386L22.3348 44.708H22.3348L21.9859 42.7386ZM7.82229 41.3657C8.71505 42.0161 9.96605 41.8197 10.6165 40.9269C11.2669 40.0342 11.0705 38.7832 10.1777 38.1327L7.82229 41.3657ZM19 63.5L17.6486 64.9743C18.4132 65.6752 19.5868 65.6752 20.3514 64.9743L19 63.5ZM26.3514 59.4743C27.1657 58.7279 27.2207 57.4628 26.4743 56.6486C25.7279 55.8343 24.4628 55.7793 23.6486 56.5257L26.3514 59.4743ZM14.3514 56.5257C13.5372 55.7793 12.2721 55.8343 11.5257 56.6486C10.7793 57.4628 10.8343 58.7279 11.6486 59.4743L14.3514 56.5257ZM42.2291 9.66852L43.7763 10.9359L43.854 10.8411L43.9195 10.7374L42.2291 9.66852ZM35.2675 2.812L34.1731 1.13802L34.0955 1.18877L34.0229 1.2465L35.2675 2.812ZM34 26C34 33.3833 28.6636 39.5244 21.637 40.7693L22.3348 44.708C31.2382 43.1305 38 35.3569 38 26H34ZM4 26C4 17.7157 10.7157 11 19 11V7C8.50659 7 0 15.5066 0 26H4ZM10.1777 38.1327C6.4295 35.4019 4 30.9848 4 26H0C0 32.3174 3.08516 37.9144 7.82229 41.3657L10.1777 38.1327ZM17 46V63.5H21V46H17ZM20.3514 64.9743L26.3514 59.4743L23.6486 56.5257L17.6486 62.0257L20.3514 64.9743ZM20.3514 62.0257L14.3514 56.5257L11.6486 59.4743L17.6486 64.9743L20.3514 62.0257ZM21.637 40.7693C19.2675 41.1891 17 43.1682 17 46H21C21 45.5181 21.4414 44.8663 22.3348 44.708L21.637 40.7693ZM38 4C39.6569 4 41 5.34315 41 7H45C45 3.13401 41.866 0 38 0V4ZM41 7C41 7.59175 40.8307 8.13785 40.5387 8.59965L43.9195 10.7374C44.6041 9.65482 45 8.37059 45 7H41ZM40.682 8.40111C39.4991 9.84508 37.6591 11.6251 36.3143 14.2281C34.9148 16.9369 34 20.5215 34 26H38C38 20.9785 38.8352 18.0631 39.868 16.0641C40.9555 13.9592 42.23 12.8234 43.7763 10.9359L40.682 8.40111ZM19 11C24.7876 11 27.9621 10.5136 30.3927 9.25145C31.604 8.62243 32.544 7.84528 33.4493 7.04056C34.3759 6.217 35.2526 5.37896 36.5122 4.37751L34.0229 1.2465C32.6487 2.33905 31.6125 3.32151 30.792 4.05082C29.9503 4.79897 29.3089 5.30708 28.5492 5.70156C27.0379 6.48637 24.7124 7 19 7V11ZM36.3619 4.48599C36.8319 4.17874 37.392 4 38 4V0C36.5912 0 35.2739 0.418297 34.1731 1.13802L36.3619 4.48599Z" fill="white"/>
</svg>

