<svg width="94" height="91" viewBox="0 0 94 91" fill="none" xmlns="http://www.w3.org/2000/svg">
<path fill-rule="evenodd" clip-rule="evenodd" d="M81.9711 32.1463C83.4601 28.9731 84.8327 26.048 87.8269 23.9754C90.9876 21.7876 93.1385 18.2132 93.3604 14.0776C93.7413 6.9802 88.2964 0.917905 81.199 0.53707C76.5511 0.287672 72.3472 2.53667 69.892 6.11204C67.7777 9.19111 65.0398 10.4419 62.0161 11.8232C61.3155 12.1433 60.5996 12.4703 59.8726 12.8288C57.7101 13.8949 54.4905 14.7637 51.1383 15.3254C47.7996 15.8849 44.7408 16.0725 43.0268 15.9694L43.0266 15.9717C24.5653 14.8116 8.01905 27.8307 4.18928 45.4356H1.65069C1.65069 45.4356 0.930176 48.0047 0.930176 54.7606C0.930176 61.5165 1.65069 64.0857 1.65069 64.0857H4.96337C9.4021 78.6704 22.5732 89.6227 38.6787 90.4869C56.185 91.4263 71.5197 80.1437 76.3919 64.0857H80.2583C80.2583 64.0857 81.1329 61.6177 81.1329 54.7606C81.1329 47.9035 80.2583 45.4356 80.2583 45.4356H78.1588C78.2663 44.6748 78.4032 43.794 78.5759 42.7631C79.1376 39.4108 80.0065 36.1913 81.0726 34.0288C81.3852 33.3948 81.6803 32.7658 81.9711 32.1463ZM67.2382 45.4356C64.0296 34.4868 54.2013 26.2357 42.161 25.5896C29.0833 24.8879 17.6402 33.3858 14.1199 45.4356H67.2382ZM66.1328 64.0857H15.2255C19.2401 73.4698 28.3147 80.2648 39.1958 80.8487C51.1272 81.4889 61.698 74.4716 66.1328 64.0857ZM80.2336 18.5284C81.2944 18.5853 82.2974 18.3169 83.1456 17.8102C83.2124 17.7528 83.2798 17.6956 83.3476 17.6386L83.3716 17.6672C84.6712 16.7964 85.5596 15.3462 85.6498 13.6638C85.8022 10.8249 83.6242 8.39998 80.7853 8.24764C78.9053 8.14676 77.2068 9.06779 76.2297 10.526L76.2628 10.5538C76.1985 10.6302 76.134 10.7061 76.0692 10.7813C75.6649 11.4688 75.4148 12.2608 75.3691 13.1122C75.2168 15.9512 77.3947 18.3761 80.2336 18.5284ZM68.204 17.168C69.4467 21.2122 72.6381 24.4416 76.735 25.6947C75.7353 27.3992 74.9063 29.074 74.1468 30.6145C73.6176 31.688 73.1497 32.8695 72.7386 34.1059C69.5737 28.8083 65.1269 24.3434 59.8018 21.1607C61.0359 20.7501 62.2152 20.2829 63.2869 19.7545C64.8266 18.9955 66.5004 18.167 68.204 17.168Z" fill="white"/>
<path d="M11.7775 50.2606L10.695 57.4413H9.91319L8.71039 50.2606H7.48352L8.68633 58.6802H11.9339L13.0164 50.2606H11.7775ZM22.687 54.4584C22.687 51.9686 20.6663 49.9599 18.1885 49.9599C15.6987 49.9599 13.69 51.9686 13.69 54.4584C13.69 56.9362 15.6987 58.9569 18.1885 58.9569C20.6663 58.9569 22.687 56.9362 22.687 54.4584ZM14.9529 54.4584C14.9529 53.5924 15.2897 52.7745 15.9032 52.1731C16.5166 51.5596 17.3225 51.2228 18.1885 51.2228C19.0545 51.2228 19.8604 51.5596 20.4738 52.1731C21.0873 52.7745 21.412 53.5924 21.412 54.4584C21.412 55.3124 21.0873 56.1303 20.4738 56.7317C19.8604 57.3451 19.0545 57.6819 18.1885 57.6819C17.3225 57.6819 16.5166 57.3451 15.9032 56.7317C15.2897 56.1303 14.9529 55.3124 14.9529 54.4584ZM24.7778 57.5015V50.2606H23.5149V58.6802H27.6405V57.5015H24.7778ZM31.7577 50.2606L30.6752 57.4413H29.8934L28.6906 50.2606H27.4637L28.6665 58.6802H31.9141L32.9966 50.2606H31.7577ZM42.6672 54.4584C42.6672 51.9686 40.6465 49.9599 38.1687 49.9599C35.6789 49.9599 33.6702 51.9686 33.6702 54.4584C33.6702 56.9362 35.6789 58.9569 38.1687 58.9569C40.6465 58.9569 42.6672 56.9362 42.6672 54.4584ZM34.9331 54.4584C34.9331 53.5924 35.2699 52.7745 35.8834 52.1731C36.4968 51.5596 37.3027 51.2228 38.1687 51.2228C39.0347 51.2228 39.8406 51.5596 40.454 52.1731C41.0675 52.7745 41.3922 53.5924 41.3922 54.4584C41.3922 55.3124 41.0675 56.1303 40.454 56.7317C39.8406 57.3451 39.0347 57.6819 38.1687 57.6819C37.3027 57.6819 36.4968 57.3451 35.8834 56.7317C35.2699 56.1303 34.9331 55.3124 34.9331 54.4584ZM45.8464 50.2606H43.5249V58.6562H44.7879V56.3949H45.8464C46.6763 56.3949 47.4581 56.0942 48.0234 55.5048C48.6008 54.9155 48.9255 54.1577 48.9255 53.3398C48.9255 52.5098 48.6008 51.728 48.0234 51.1627C47.4581 50.5854 46.6763 50.2606 45.8464 50.2606ZM45.8464 55.132H44.7879V51.5115H45.8464C46.8447 51.5115 47.6746 52.3415 47.6746 53.3398C47.6746 54.3381 46.8447 55.132 45.8464 55.132ZM50.9826 58.6802V55.0959H54.0618V58.6802H55.3007V50.2606H49.7558V58.6802H50.9826ZM50.9826 51.4995H54.0618V53.857H50.9826V51.4995ZM57.6083 58.6802V56.4069H58.354L60.1823 58.6802H61.8181L59.7974 56.1904C60.1823 56.0341 60.5431 55.8176 60.8438 55.5169C61.4332 54.9275 61.7459 54.1577 61.7459 53.3278C61.7459 52.5219 61.4332 51.728 60.8438 51.1627C60.2424 50.5974 59.4967 50.2606 58.6668 50.2606H56.3453V58.6802H57.6083ZM57.6083 51.5235H58.6668C59.6651 51.5235 60.495 52.3174 60.495 53.3278C60.495 54.3261 59.6651 55.144 58.6668 55.144H57.6083V51.5235ZM67.4909 51.4995V50.2606H61.8859V51.4995H64.075V58.6802H65.3018V51.4995H67.4909ZM73.6859 54.9395H68.3093V50.2606H74.9248V51.4875H69.5362V53.7126H74.9248V58.6802H68.3093V57.4534H73.6859V54.9395Z" fill="#1C1A1A"/>
</svg>
