<svg width="94" height="91" viewBox="0 0 94 91" fill="none" xmlns="http://www.w3.org/2000/svg">
<path fill-rule="evenodd" clip-rule="evenodd" d="M81.9711 31.628C83.4601 28.4548 84.8327 25.5297 87.8269 23.4572C90.9876 21.2694 93.1385 17.6949 93.3604 13.5593C93.7413 6.46195 88.2964 0.399655 81.199 0.0188201C76.5511 -0.230577 72.3472 2.01842 69.892 5.59379C67.7777 8.67286 65.0398 9.92362 62.0161 11.305C61.3155 11.625 60.5996 11.9521 59.8726 12.3105C57.7101 13.3766 54.4905 14.2455 51.1383 14.8072C47.7996 15.3666 44.7408 15.5542 43.0268 15.4511L43.0266 15.4534C24.5653 14.2934 8.01905 27.3125 4.18928 44.9173H1.65069C1.65069 44.9173 0.930176 47.4865 0.930176 54.2424C0.930176 60.9983 1.65069 63.5674 1.65069 63.5674H4.96337C9.4021 78.1522 22.5732 89.1045 38.6787 89.9687C56.185 90.908 71.5197 79.6254 76.3919 63.5674H80.2583C80.2583 63.5674 81.1329 61.0994 81.1329 54.2424C81.1329 47.3853 80.2583 44.9173 80.2583 44.9173H78.1588C78.2663 44.1566 78.4032 43.2758 78.5759 42.2449C79.1376 38.8926 80.0065 35.6731 81.0726 33.5106C81.3852 32.8766 81.6803 32.2476 81.9711 31.628ZM67.2382 44.9173C64.0296 33.9686 54.2013 25.7174 42.161 25.0714C29.0833 24.3696 17.6402 32.8676 14.1199 44.9173H67.2382ZM66.1328 63.5674H15.2255C19.2401 72.9515 28.3147 79.7466 39.1958 80.3305C51.1272 80.9707 61.698 73.9533 66.1328 63.5674ZM80.2336 18.0102C81.2944 18.0671 82.2974 17.7987 83.1456 17.292C83.2124 17.2346 83.2798 17.1774 83.3476 17.1203L83.3716 17.1489C84.6712 16.2782 85.5596 14.828 85.6498 13.1456C85.8022 10.3066 83.6242 7.88173 80.7853 7.72939C78.9053 7.62851 77.2068 8.54955 76.2297 10.0077L76.2628 10.0356C76.1985 10.112 76.134 10.1878 76.0692 10.2631C75.6649 10.9505 75.4148 11.7425 75.3691 12.5939C75.2168 15.4329 77.3947 17.8578 80.2336 18.0102ZM68.204 16.6497C69.4467 20.694 72.6381 23.9234 76.735 25.1764C75.7353 26.8809 74.9063 28.5557 74.1468 30.0962C73.6176 31.1698 73.1497 32.3513 72.7386 33.5877C69.5737 28.29 65.1269 23.8251 59.8018 20.6425C61.0359 20.2318 62.2152 19.7646 63.2869 19.2363C64.8266 18.4772 66.5004 17.6487 68.204 16.6497Z" fill="#74746B"/>
<path d="M12.1771 58.4818V54.8975H15.2562V58.4818H16.4951V50.0622H10.9502V58.4818H12.1771ZM12.1771 51.3011H15.2562V53.6586H12.1771V51.3011Z" fill="#1C1A1A"/>
<path d="M21.8338 50.0622V57.2429H18.7666V50.0622H17.5398V58.4818H23.0727V50.0622H21.8338Z" fill="#1C1A1A"/>
<path d="M29.5781 51.3011V50.0622H23.973V51.3011H26.1621V58.4818H27.389V51.3011H29.5781Z" fill="#1C1A1A"/>
<path d="M38.5715 54.26C38.5715 51.7702 36.5508 49.7615 34.073 49.7615C31.5832 49.7615 29.5745 51.7702 29.5745 54.26C29.5745 56.7377 31.5832 58.7585 34.073 58.7585C36.5508 58.7585 38.5715 56.7377 38.5715 54.26ZM30.8375 54.26C30.8375 53.3939 31.1742 52.576 31.7877 51.9746C32.4011 51.3612 33.207 51.0244 34.073 51.0244C34.939 51.0244 35.7449 51.3612 36.3583 51.9746C36.9718 52.576 37.2965 53.3939 37.2965 54.26C37.2965 55.114 36.9718 55.9319 36.3583 56.5333C35.7449 57.1467 34.939 57.4835 34.073 57.4835C33.207 57.4835 32.4011 57.1467 31.7877 56.5333C31.1742 55.9319 30.8375 55.114 30.8375 54.26Z" fill="#1C1A1A"/>
<path d="M41.7507 50.0622H39.4293V58.4578H40.6922V56.1965H41.7507C42.5806 56.1965 43.3624 55.8958 43.9277 55.3064C44.5051 54.717 44.8298 53.9593 44.8298 53.1414C44.8298 52.3114 44.5051 51.5296 43.9277 50.9643C43.3624 50.3869 42.5806 50.0622 41.7507 50.0622ZM41.7507 54.9335H40.6922V51.3131H41.7507C42.749 51.3131 43.5789 52.143 43.5789 53.1414C43.5789 54.1397 42.749 54.9335 41.7507 54.9335Z" fill="#1C1A1A"/>
<path d="M46.8869 58.4818V54.8975H49.9661V58.4818H51.205V50.0622H45.6601V58.4818H46.8869ZM46.8869 51.3011H49.9661V53.6586H46.8869V51.3011Z" fill="#1C1A1A"/>
<path d="M53.5126 58.4818V56.2085H54.2583L56.0866 58.4818H57.7224L55.7017 55.992C56.0866 55.8356 56.4475 55.6191 56.7482 55.3184C57.3375 54.7291 57.6503 53.9593 57.6503 53.1293C57.6503 52.3235 57.3375 51.5296 56.7482 50.9643C56.1468 50.399 55.401 50.0622 54.5711 50.0622H52.2497V58.4818H53.5126ZM53.5126 51.3251H54.5711C55.5694 51.3251 56.3993 52.119 56.3993 53.1293C56.3993 54.1277 55.5694 54.9456 54.5711 54.9456H53.5126V51.3251Z" fill="#1C1A1A"/>
<path d="M63.3953 51.3011V50.0622H57.7902V51.3011H59.9793V58.4818H61.2061V51.3011H63.3953Z" fill="#1C1A1A"/>
<path d="M69.5902 54.7411H64.2136V50.0622H70.8291V51.289H65.4405V53.5142H70.8291V58.4818H64.2136V57.255H69.5902V54.7411Z" fill="#1C1A1A"/>
</svg>
