<?xml version="1.0" encoding="UTF-8" standalone="no"?>
<!-- Created with Keyshape -->
<svg xmlns="http://www.w3.org/2000/svg" width="45" height="66" viewBox="0 0 45 66" fill="none">
    <style>
@keyframes a0_do { 0% { stroke-dashoffset: 401px; animation-timing-function: cubic-bezier(0.56484,0.025749,0.642389,0.66599); } 100% { stroke-dashoffset: 66.4177px; } }
@keyframes a1_do { 0% { stroke-dashoffset: 201px; } 41.65% { stroke-dashoffset: 201px; animation-timing-function: cubic-bezier(0.810563,-0.003329,0.618693,0.791125); } 100% { stroke-dashoffset: 9.51921px; } }
    </style>
    <path d="M0,0C0,0,-14.3243,-12.7954,-2,-26C5,-33.5,12.5,-29.7486,18,-32C23.5,-34.2514,23.5,-37.5,27.5122,-38C31.4694,-38.4931,34.5788,-35.186,34,-31.5989C33.5,-28.5,30.5,-28,28,-22C25.612,-16.2688,29.5,-10.5,23,-3C16.281,4.7527,10,1.208,10,6.708C10,10.5,10,20.5,10,20.5" fill="none" stroke-linecap="round" stroke="#faff00" stroke-width="4" stroke-dashoffset="401" stroke-dasharray="400.3" stroke-miterlimit="1" transform="translate(9,40)" style="animation: 2s linear infinite both a0_do;"/>
    <path d="M0,0L6,6L12,0" stroke="#faff00" fill="none" stroke-width="4" stroke-linecap="round" stroke-linejoin="round" stroke-dashoffset="201" stroke-dasharray="200.1" stroke-miterlimit="1" transform="translate(13,57)" style="animation: 2s linear infinite both a1_do;"/>
</svg>
