<svg width="45" height="66" viewBox="0 0 45 66" fill="none" xmlns="http://www.w3.org/2000/svg">
<path fill-rule="evenodd" clip-rule="evenodd" d="M35.012 5.19165L35.0081 5.19682L35.0066 5.19896C35.0027 5.20428 34.9983 5.21026 34.9934 5.21689C34.9879 5.22426 34.9818 5.23243 34.9751 5.24138C34.9495 5.27537 34.9149 5.32064 34.8714 5.3759C34.7845 5.48633 34.6616 5.6372 34.5038 5.81821C34.1891 6.17934 33.7311 6.66556 33.1384 7.192C31.9627 8.23618 30.198 9.49067 27.916 10.1955C25.7316 10.8703 23.4084 11.0579 21.6891 11.0893C20.8176 11.1053 20.0746 11.0814 19.5456 11.0533C19.2807 11.0392 19.0682 11.0239 18.9187 11.0119C18.8647 11.0075 18.8188 11.0036 18.7817 11.0003C10.5385 11.0478 3.87097 17.6673 3.87097 25.8261C3.87097 30.8031 6.35023 35.2078 10.1632 37.8998C11.0331 38.5139 11.2345 39.7087 10.6132 40.5685C9.9919 41.4282 8.78309 41.6273 7.91326 41.0132C3.12671 37.6339 0 32.0909 0 25.8261C0 15.5248 8.44882 7.17391 18.871 7.17391H18.9726L19.0725 7.18431L19.0762 7.18468L19.1044 7.18736C19.1315 7.18988 19.1749 7.19375 19.2334 7.19846C19.3504 7.20789 19.5273 7.22067 19.7538 7.23273C20.2077 7.25689 20.8558 7.27785 21.6174 7.26392C23.1642 7.2356 25.0749 7.06453 26.7614 6.5436C28.3504 6.0528 29.6402 5.15512 30.5511 4.34605C31.0017 3.94586 31.3452 3.58017 31.571 3.32106C31.6835 3.19194 31.7657 3.0906 31.8163 3.02636C31.8415 2.99428 31.8588 2.97159 31.8679 2.95946L31.8745 2.95059L31.8754 2.94938L31.8787 2.94481L31.887 2.93362C33.2045 1.15855 35.3365 0 37.7419 0C41.7505 0 45 3.21187 45 7.17391C45 9.52074 43.858 11.6042 42.1013 12.9101C42.0917 12.9185 42.0803 12.9286 42.0672 12.9403C42.0095 12.9917 41.919 13.0745 41.8027 13.1871C41.5697 13.4126 41.2365 13.7546 40.8601 14.1997C40.1014 15.0969 39.1999 16.3745 38.5713 17.9279C37.9688 19.4164 37.738 21.3088 37.6803 22.9339C37.6521 23.7264 37.6662 24.4156 37.6873 24.9041C37.6978 25.1476 37.7099 25.3396 37.7191 25.4674C37.7237 25.5313 37.7276 25.5791 37.7301 25.6092L37.7329 25.6409L37.7332 25.6447L37.7334 25.6463L37.7419 25.7352V25.8261C37.7419 34.6756 31.5086 42.0815 23.1469 43.997C21.6743 44.3343 20.8065 45.4138 20.8065 46.3913V59.4685L23.6338 56.763C24.3896 56.0159 25.6151 56.0159 26.371 56.763C27.1268 57.5101 27.1268 58.7214 26.371 59.4685L20.2396 65.4397C19.4837 66.1868 18.2582 66.1868 17.5024 65.4397L11.371 59.4685C10.6151 58.7214 10.6151 57.5101 11.371 56.763C12.1268 56.0159 13.3523 56.0159 14.1082 56.763L16.9355 59.4685V46.3913C16.9355 43.1427 19.5802 40.8865 22.2729 40.2697C28.8939 38.753 33.8334 32.9005 33.8708 25.9059C33.8672 25.863 33.8628 25.8071 33.8579 25.7392C33.8463 25.5784 33.832 25.35 33.8198 25.0667C33.7955 24.5015 33.7793 23.7111 33.8117 22.7998C33.875 21.0173 34.1279 18.6053 34.9772 16.5069C35.8001 14.4734 36.9551 12.8515 37.8899 11.746C38.5959 10.9112 39.1922 10.3512 39.4727 10.1008C40.3876 9.28411 41.129 8.48571 41.129 7.17391C41.129 5.32496 39.6126 3.82609 37.7419 3.82609C36.6237 3.82609 35.6319 4.35973 35.012 5.19165Z" fill="#FAFF00"/>
</svg>
